<mxfile host="app.diagrams.net" modified="2021-03-22T13:18:01.345Z" agent="5.0 (Windows NT 10.0; Win64; x64) AppleWebKit/537.36 (KHTML, like Gecko) Chrome/87.0.4280.66 Safari/537.36" etag="AYrQgWIdgBewOMIrnVcp" version="14.4.9" type="github">
  <diagram name="Page-1" id="74e2e168-ea6b-b213-b513-2b3c1d86103e">
    <mxGraphModel dx="1550" dy="868" grid="1" gridSize="10" guides="1" tooltips="1" connect="1" arrows="1" fold="1" page="1" pageScale="1" pageWidth="1100" pageHeight="850" background="#ffffff" math="0" shadow="0">
      <root>
        <mxCell id="0" />
        <mxCell id="1" parent="0" />
        <mxCell id="77e6c97f196da883-1" value="Pool" style="swimlane;html=1;childLayout=stackLayout;startSize=20;rounded=0;shadow=0;labelBackgroundColor=none;strokeWidth=1;fontFamily=Verdana;fontSize=8;align=center;" parent="1" vertex="1">
          <mxGeometry x="70" y="40" width="980" height="750" as="geometry" />
        </mxCell>
        <mxCell id="77e6c97f196da883-2" value="费用管理" style="swimlane;html=1;startSize=20;fillColor=#d5e8d4;strokeColor=#82b366;" parent="77e6c97f196da883-1" vertex="1">
          <mxGeometry y="20" width="180" height="730" as="geometry" />
        </mxCell>
        <mxCell id="77e6c97f196da883-8" value="报销单" style="rounded=1;whiteSpace=wrap;html=1;shadow=0;labelBackgroundColor=none;strokeWidth=1;fontFamily=Verdana;fontSize=8;align=center;" parent="77e6c97f196da883-2" vertex="1">
          <mxGeometry x="20" y="90" width="100" height="60" as="geometry" />
        </mxCell>
        <mxCell id="bIo-y8vV38xyynJxOYXc-22" style="edgeStyle=orthogonalEdgeStyle;rounded=0;orthogonalLoop=1;jettySize=auto;html=1;" edge="1" parent="77e6c97f196da883-2" source="77e6c97f196da883-9" target="77e6c97f196da883-13">
          <mxGeometry relative="1" as="geometry" />
        </mxCell>
        <mxCell id="77e6c97f196da883-9" value="报销单(生效）" style="rounded=1;whiteSpace=wrap;html=1;shadow=0;labelBackgroundColor=none;strokeWidth=1;fontFamily=Verdana;fontSize=8;align=center;" parent="77e6c97f196da883-2" vertex="1">
          <mxGeometry x="20" y="190" width="100" height="60" as="geometry" />
        </mxCell>
        <mxCell id="bIo-y8vV38xyynJxOYXc-2" style="edgeStyle=orthogonalEdgeStyle;rounded=0;orthogonalLoop=1;jettySize=auto;html=1;" edge="1" parent="77e6c97f196da883-2" source="bIo-y8vV38xyynJxOYXc-1" target="77e6c97f196da883-8">
          <mxGeometry relative="1" as="geometry" />
        </mxCell>
        <mxCell id="bIo-y8vV38xyynJxOYXc-1" value="" style="ellipse;whiteSpace=wrap;html=1;aspect=fixed;" vertex="1" parent="77e6c97f196da883-2">
          <mxGeometry x="55" y="30" width="30" height="30" as="geometry" />
        </mxCell>
        <mxCell id="bIo-y8vV38xyynJxOYXc-5" value="审批通过" style="text;html=1;align=center;verticalAlign=middle;resizable=0;points=[];autosize=1;" vertex="1" parent="77e6c97f196da883-2">
          <mxGeometry x="120" y="110" width="60" height="20" as="geometry" />
        </mxCell>
        <mxCell id="bIo-y8vV38xyynJxOYXc-26" style="edgeStyle=orthogonalEdgeStyle;rounded=0;orthogonalLoop=1;jettySize=auto;html=1;" edge="1" parent="77e6c97f196da883-2" source="77e6c97f196da883-13" target="bIo-y8vV38xyynJxOYXc-25">
          <mxGeometry relative="1" as="geometry">
            <Array as="points">
              <mxPoint x="70" y="600" />
              <mxPoint x="70" y="600" />
            </Array>
          </mxGeometry>
        </mxCell>
        <mxCell id="bIo-y8vV38xyynJxOYXc-27" value="N" style="edgeLabel;html=1;align=center;verticalAlign=middle;resizable=0;points=[];" vertex="1" connectable="0" parent="bIo-y8vV38xyynJxOYXc-26">
          <mxGeometry x="-0.2" y="-1" relative="1" as="geometry">
            <mxPoint as="offset" />
          </mxGeometry>
        </mxCell>
        <mxCell id="77e6c97f196da883-13" value="生成收付" style="rhombus;whiteSpace=wrap;html=1;rounded=0;shadow=0;labelBackgroundColor=none;strokeWidth=1;fontFamily=Verdana;fontSize=8;align=center;" parent="77e6c97f196da883-2" vertex="1">
          <mxGeometry x="30" y="480" width="80" height="60" as="geometry" />
        </mxCell>
        <mxCell id="bIo-y8vV38xyynJxOYXc-25" value="" style="ellipse;whiteSpace=wrap;html=1;aspect=fixed;" vertex="1" parent="77e6c97f196da883-2">
          <mxGeometry x="55" y="660" width="30" height="30" as="geometry" />
        </mxCell>
        <mxCell id="77e6c97f196da883-26" style="edgeStyle=orthogonalEdgeStyle;rounded=1;html=1;labelBackgroundColor=none;startArrow=none;startFill=0;startSize=5;endArrow=classicThin;endFill=1;endSize=5;jettySize=auto;orthogonalLoop=1;strokeWidth=1;fontFamily=Verdana;fontSize=8;entryX=0;entryY=0.5;entryDx=0;entryDy=0;" parent="77e6c97f196da883-1" source="77e6c97f196da883-8" target="77e6c97f196da883-11" edge="1">
          <mxGeometry relative="1" as="geometry">
            <Array as="points">
              <mxPoint x="170" y="130" />
              <mxPoint x="170" y="70" />
            </Array>
          </mxGeometry>
        </mxCell>
        <mxCell id="77e6c97f196da883-3" value="财资服务" style="swimlane;html=1;startSize=20;fillColor=#e1d5e7;strokeColor=#9673a6;" parent="77e6c97f196da883-1" vertex="1">
          <mxGeometry x="180" y="20" width="160" height="730" as="geometry" />
        </mxCell>
        <mxCell id="bIo-y8vV38xyynJxOYXc-8" style="edgeStyle=orthogonalEdgeStyle;rounded=0;orthogonalLoop=1;jettySize=auto;html=1;entryX=0.5;entryY=0;entryDx=0;entryDy=0;" edge="1" parent="77e6c97f196da883-3" source="77e6c97f196da883-11" target="bIo-y8vV38xyynJxOYXc-7">
          <mxGeometry relative="1" as="geometry" />
        </mxCell>
        <mxCell id="77e6c97f196da883-11" value="结算" style="rounded=1;whiteSpace=wrap;html=1;shadow=0;labelBackgroundColor=none;strokeWidth=1;fontFamily=Verdana;fontSize=8;align=center;" parent="77e6c97f196da883-3" vertex="1">
          <mxGeometry x="50" y="30" width="80" height="40" as="geometry" />
        </mxCell>
        <mxCell id="bIo-y8vV38xyynJxOYXc-11" style="edgeStyle=orthogonalEdgeStyle;rounded=0;orthogonalLoop=1;jettySize=auto;html=1;" edge="1" parent="77e6c97f196da883-3" source="bIo-y8vV38xyynJxOYXc-7" target="bIo-y8vV38xyynJxOYXc-10">
          <mxGeometry relative="1" as="geometry">
            <Array as="points">
              <mxPoint x="90" y="150" />
              <mxPoint x="90" y="150" />
            </Array>
          </mxGeometry>
        </mxCell>
        <mxCell id="bIo-y8vV38xyynJxOYXc-7" value="自动签字" style="rhombus;whiteSpace=wrap;html=1;rounded=0;shadow=0;labelBackgroundColor=none;strokeWidth=1;fontFamily=Verdana;fontSize=8;align=center;" vertex="1" parent="77e6c97f196da883-3">
          <mxGeometry x="20" y="130" width="60" height="40" as="geometry" />
        </mxCell>
        <mxCell id="bIo-y8vV38xyynJxOYXc-10" value="" style="ellipse;whiteSpace=wrap;html=1;aspect=fixed;" vertex="1" parent="77e6c97f196da883-3">
          <mxGeometry x="120" y="135" width="30" height="30" as="geometry" />
        </mxCell>
        <mxCell id="bIo-y8vV38xyynJxOYXc-13" value="N" style="text;html=1;align=center;verticalAlign=middle;resizable=0;points=[];autosize=1;" vertex="1" parent="77e6c97f196da883-3">
          <mxGeometry x="90" y="145" width="20" height="20" as="geometry" />
        </mxCell>
        <mxCell id="77e6c97f196da883-4" value="财资服务" style="swimlane;html=1;startSize=20;fillColor=#fff2cc;strokeColor=#d6b656;" parent="77e6c97f196da883-1" vertex="1">
          <mxGeometry x="340" y="20" width="160" height="730" as="geometry" />
        </mxCell>
        <mxCell id="bIo-y8vV38xyynJxOYXc-29" style="edgeStyle=orthogonalEdgeStyle;rounded=0;orthogonalLoop=1;jettySize=auto;html=1;" edge="1" parent="77e6c97f196da883-4" source="77e6c97f196da883-12" target="bIo-y8vV38xyynJxOYXc-28">
          <mxGeometry relative="1" as="geometry" />
        </mxCell>
        <mxCell id="77e6c97f196da883-12" value="应收应付" style="rounded=1;whiteSpace=wrap;html=1;shadow=0;labelBackgroundColor=none;strokeWidth=1;fontFamily=Verdana;fontSize=8;align=center;" parent="77e6c97f196da883-4" vertex="1">
          <mxGeometry x="30" y="480" width="100" height="60" as="geometry" />
        </mxCell>
        <mxCell id="bIo-y8vV38xyynJxOYXc-28" value="" style="ellipse;whiteSpace=wrap;html=1;aspect=fixed;" vertex="1" parent="77e6c97f196da883-4">
          <mxGeometry x="65" y="660" width="30" height="30" as="geometry" />
        </mxCell>
        <mxCell id="77e6c97f196da883-5" value="共享服务" style="swimlane;html=1;startSize=20;fillColor=#ffe6cc;strokeColor=#d79b00;" parent="77e6c97f196da883-1" vertex="1">
          <mxGeometry x="500" y="20" width="160" height="730" as="geometry" />
        </mxCell>
        <mxCell id="bIo-y8vV38xyynJxOYXc-18" style="edgeStyle=orthogonalEdgeStyle;rounded=0;orthogonalLoop=1;jettySize=auto;html=1;" edge="1" parent="77e6c97f196da883-5" source="77e6c97f196da883-15" target="bIo-y8vV38xyynJxOYXc-17">
          <mxGeometry relative="1" as="geometry" />
        </mxCell>
        <mxCell id="77e6c97f196da883-15" value="全员业务平台" style="rounded=1;whiteSpace=wrap;html=1;shadow=0;labelBackgroundColor=none;strokeWidth=1;fontFamily=Verdana;fontSize=8;align=center;" parent="77e6c97f196da883-5" vertex="1">
          <mxGeometry x="30" y="190" width="100" height="60" as="geometry" />
        </mxCell>
        <mxCell id="bIo-y8vV38xyynJxOYXc-17" value="" style="ellipse;whiteSpace=wrap;html=1;aspect=fixed;" vertex="1" parent="77e6c97f196da883-5">
          <mxGeometry x="65" y="130" width="30" height="30" as="geometry" />
        </mxCell>
        <mxCell id="77e6c97f196da883-6" value="会计平台" style="swimlane;html=1;startSize=20;" parent="77e6c97f196da883-1" vertex="1">
          <mxGeometry x="660" y="20" width="160" height="730" as="geometry" />
        </mxCell>
        <mxCell id="bIo-y8vV38xyynJxOYXc-20" style="edgeStyle=orthogonalEdgeStyle;rounded=0;orthogonalLoop=1;jettySize=auto;html=1;entryX=0.5;entryY=1;entryDx=0;entryDy=0;" edge="1" parent="77e6c97f196da883-6" source="77e6c97f196da883-18" target="bIo-y8vV38xyynJxOYXc-19">
          <mxGeometry relative="1" as="geometry" />
        </mxCell>
        <mxCell id="77e6c97f196da883-18" value="凭证及单据生成" style="rounded=1;whiteSpace=wrap;html=1;shadow=0;labelBackgroundColor=none;strokeWidth=1;fontFamily=Verdana;fontSize=8;align=center;" parent="77e6c97f196da883-6" vertex="1">
          <mxGeometry x="30" y="280" width="100" height="60" as="geometry" />
        </mxCell>
        <mxCell id="bIo-y8vV38xyynJxOYXc-19" value="" style="ellipse;whiteSpace=wrap;html=1;aspect=fixed;" vertex="1" parent="77e6c97f196da883-6">
          <mxGeometry x="65" y="130" width="30" height="30" as="geometry" />
        </mxCell>
        <mxCell id="77e6c97f196da883-7" value="预算服务" style="swimlane;html=1;startSize=20;" parent="77e6c97f196da883-1" vertex="1">
          <mxGeometry x="820" y="20" width="160" height="730" as="geometry" />
        </mxCell>
        <mxCell id="bIo-y8vV38xyynJxOYXc-31" style="edgeStyle=orthogonalEdgeStyle;rounded=0;orthogonalLoop=1;jettySize=auto;html=1;entryX=0.5;entryY=1;entryDx=0;entryDy=0;" edge="1" parent="77e6c97f196da883-7" source="77e6c97f196da883-24" target="bIo-y8vV38xyynJxOYXc-30">
          <mxGeometry relative="1" as="geometry" />
        </mxCell>
        <mxCell id="77e6c97f196da883-24" value="预占数转执行数" style="rounded=1;whiteSpace=wrap;html=1;shadow=0;labelBackgroundColor=none;strokeWidth=1;fontFamily=Verdana;fontSize=8;align=center;" parent="77e6c97f196da883-7" vertex="1">
          <mxGeometry x="30" y="365" width="100" height="60" as="geometry" />
        </mxCell>
        <mxCell id="bIo-y8vV38xyynJxOYXc-30" value="" style="ellipse;whiteSpace=wrap;html=1;aspect=fixed;" vertex="1" parent="77e6c97f196da883-7">
          <mxGeometry x="65" y="130" width="30" height="30" as="geometry" />
        </mxCell>
        <mxCell id="bIo-y8vV38xyynJxOYXc-9" style="edgeStyle=orthogonalEdgeStyle;rounded=0;orthogonalLoop=1;jettySize=auto;html=1;entryX=0.5;entryY=0;entryDx=0;entryDy=0;fillColor=#dae8fc;strokeColor=#FF33FF;" edge="1" parent="77e6c97f196da883-1" source="bIo-y8vV38xyynJxOYXc-7" target="77e6c97f196da883-9">
          <mxGeometry relative="1" as="geometry">
            <Array as="points">
              <mxPoint x="70" y="190" />
            </Array>
          </mxGeometry>
        </mxCell>
        <mxCell id="bIo-y8vV38xyynJxOYXc-12" value="Y" style="edgeLabel;html=1;align=center;verticalAlign=middle;resizable=0;points=[];" vertex="1" connectable="0" parent="bIo-y8vV38xyynJxOYXc-9">
          <mxGeometry x="-0.5013" y="2" relative="1" as="geometry">
            <mxPoint as="offset" />
          </mxGeometry>
        </mxCell>
        <mxCell id="bIo-y8vV38xyynJxOYXc-16" style="edgeStyle=orthogonalEdgeStyle;rounded=0;orthogonalLoop=1;jettySize=auto;html=1;entryX=0;entryY=0.5;entryDx=0;entryDy=0;fillColor=#f8cecc;strokeColor=#b85450;" edge="1" parent="77e6c97f196da883-1" source="77e6c97f196da883-9" target="77e6c97f196da883-15">
          <mxGeometry relative="1" as="geometry" />
        </mxCell>
        <mxCell id="bIo-y8vV38xyynJxOYXc-14" style="edgeStyle=orthogonalEdgeStyle;rounded=0;orthogonalLoop=1;jettySize=auto;html=1;entryX=0;entryY=0.5;entryDx=0;entryDy=0;fillColor=#f8cecc;strokeColor=#b85450;" edge="1" parent="77e6c97f196da883-1" source="77e6c97f196da883-9" target="77e6c97f196da883-18">
          <mxGeometry relative="1" as="geometry">
            <mxPoint x="70" y="340" as="targetPoint" />
            <Array as="points">
              <mxPoint x="70" y="330" />
            </Array>
          </mxGeometry>
        </mxCell>
        <mxCell id="bIo-y8vV38xyynJxOYXc-21" style="edgeStyle=orthogonalEdgeStyle;rounded=0;orthogonalLoop=1;jettySize=auto;html=1;entryX=0;entryY=0.5;entryDx=0;entryDy=0;" edge="1" parent="77e6c97f196da883-1" source="77e6c97f196da883-9" target="77e6c97f196da883-24">
          <mxGeometry relative="1" as="geometry">
            <Array as="points">
              <mxPoint x="70" y="415" />
            </Array>
          </mxGeometry>
        </mxCell>
        <mxCell id="bIo-y8vV38xyynJxOYXc-23" style="edgeStyle=orthogonalEdgeStyle;rounded=0;orthogonalLoop=1;jettySize=auto;html=1;entryX=0;entryY=0.5;entryDx=0;entryDy=0;fillColor=#f8cecc;strokeColor=#b85450;" edge="1" parent="77e6c97f196da883-1" source="77e6c97f196da883-13" target="77e6c97f196da883-12">
          <mxGeometry relative="1" as="geometry" />
        </mxCell>
        <mxCell id="bIo-y8vV38xyynJxOYXc-24" value="Y" style="edgeLabel;html=1;align=center;verticalAlign=middle;resizable=0;points=[];" vertex="1" connectable="0" parent="bIo-y8vV38xyynJxOYXc-23">
          <mxGeometry x="-0.6954" relative="1" as="geometry">
            <mxPoint as="offset" />
          </mxGeometry>
        </mxCell>
      </root>
    </mxGraphModel>
  </diagram>
</mxfile>
